# Blender v2.81 (sub 16) OBJ File: 'plane.blend'
# www.blender.org
mtllib plane.mtl
o Cube_Cube.007
v -1.698085 -0.316527 -0.322921
v 0.859758 0.794503 -1.094188
v 0.894998 -1.237139 -1.046295
v 0.872075 0.831015 0.952259
v 0.891800 -1.215378 0.988651
v -1.689318 -0.306201 0.391751
v -2.134228 0.398389 0.358994
v -2.121390 0.402405 -0.339302
v 0.854785 0.873517 -1.108504
v 1.591227 -1.272448 -1.074650
v 0.875536 -1.279269 -1.070221
v 1.570476 0.880337 -1.112934
v 1.604061 -1.234406 1.057642
v 1.583309 0.918380 1.019359
v 0.888370 -1.241225 1.062072
v 0.867618 0.911560 1.023788
v 1.552421 -0.024115 -0.126927
v 1.871291 -0.386053 -0.122389
v 1.555938 -0.389058 -0.120437
v 1.867773 -0.021110 -0.128879
v 1.873121 -0.380628 0.181668
v 1.869603 -0.015685 0.175178
v 1.557768 -0.383633 0.183619
v 1.554251 -0.018690 0.177129
v -0.727111 -0.303020 -1.645204
v 0.521780 0.113859 -1.660157
v -0.731014 0.101920 -1.652405
v 0.525684 -0.291082 -1.652957
v 0.540966 0.170733 1.527581
v 0.544869 -0.234208 1.534783
v -0.711829 0.158795 1.535335
v -0.707925 -0.246146 1.542537
v -2.746473 0.907568 -0.058271
v -1.922173 0.148134 -0.049683
v -2.739078 0.140350 -0.044628
v -1.929568 0.915352 -0.063327
v -1.920671 0.152585 0.199777
v -1.928067 0.919803 0.186134
v -2.737576 0.144800 0.204833
v -2.744972 0.912018 0.191189
vn -0.2776 -0.0275 -0.9603
vn 1.0000 0.0097 0.0015
vn -0.2202 0.0152 0.9753
vn -0.8458 -0.5332 0.0181
vn -0.3322 -0.9432 0.0096
vn -0.1430 0.9897 0.0031
vn -0.0060 -0.0178 -0.9998
vn 0.9999 0.0095 -0.0062
vn 0.0060 0.0178 0.9998
vn -0.9999 -0.0095 0.0062
vn 0.0096 -0.9998 0.0178
vn -0.0096 0.9998 -0.0178
vn -0.2235 -0.1535 -0.9625
vn 0.9998 0.0172 -0.0063
vn -0.1834 -0.0702 0.9805
vn -0.8614 -0.5076 -0.0188
vn -0.3358 -0.9418 0.0177
vn -0.1346 0.9908 -0.0169
usemtl Default_OBJ
s off
f 1//1 2//1 3//1
f 3//2 4//2 5//2
f 4//3 6//3 5//3
f 7//4 1//4 6//4
f 5//5 1//5 3//5
f 4//6 8//6 7//6
f 9//7 10//7 11//7
f 12//8 13//8 10//8
f 14//9 15//9 13//9
f 16//10 11//10 15//10
f 13//11 11//11 10//11
f 12//12 16//12 14//12
f 17//7 18//7 19//7
f 20//8 21//8 18//8
f 22//9 23//9 21//9
f 24//10 19//10 23//10
f 21//11 19//11 18//11
f 20//12 24//12 22//12
f 25//9 26//9 27//9
f 28//10 29//10 26//10
f 30//7 31//7 29//7
f 32//8 27//8 31//8
f 29//11 27//11 26//11
f 28//12 32//12 30//12
f 33//7 34//7 35//7
f 36//8 37//8 34//8
f 38//9 39//9 37//9
f 40//10 35//10 39//10
f 37//11 35//11 34//11
f 36//12 40//12 38//12
f 1//13 8//13 2//13
f 3//14 2//14 4//14
f 4//15 7//15 6//15
f 7//16 8//16 1//16
f 5//17 6//17 1//17
f 4//18 2//18 8//18
f 9//7 12//7 10//7
f 12//8 14//8 13//8
f 14//9 16//9 15//9
f 16//10 9//10 11//10
f 13//11 15//11 11//11
f 12//12 9//12 16//12
f 17//7 20//7 18//7
f 20//8 22//8 21//8
f 22//9 24//9 23//9
f 24//10 17//10 19//10
f 21//11 23//11 19//11
f 20//12 17//12 24//12
f 25//9 28//9 26//9
f 28//10 30//10 29//10
f 30//7 32//7 31//7
f 32//8 25//8 27//8
f 29//11 31//11 27//11
f 28//12 25//12 32//12
f 33//7 36//7 34//7
f 36//8 38//8 37//8
f 38//9 40//9 39//9
f 40//10 33//10 35//10
f 37//11 39//11 35//11
f 36//12 33//12 40//12
